<svg height='100px' width='100px'  fill="#718096" xmlns="http://www.w3.org/2000/svg" xmlns:xlink="http://www.w3.org/1999/xlink" version="1.1" x="0px" y="0px" viewBox="0 0 34 34" enable-background="new 0 0 34 34" xml:space="preserve"><g><path d="M29.5,11.5V7c0-0.828-0.671-1.5-1.5-1.5h-0.706C26.674,3.153,24.674,1,22,1H12C9.326,1,7.324,3.153,6.704,5.5H6   C5.171,5.5,4.5,6.172,4.5,7v4.5C4.5,12.328,5.171,13,6,13h0.642l1.865,18.649C8.584,32.416,9.229,33,10,33h14   c0.771,0,1.416-0.584,1.493-1.351L27.358,13H28C28.829,13,29.5,12.328,29.5,11.5z M7.5,10V8.5c36.147,0,3.234,0,19,0V10   C19.961,10,14.264,10,7.5,10z M12,4h10c0.826,0,1.641,0.636,2.106,1.5H9.894C10.359,4.636,11.174,4,12,4z M22.642,30H11.357   l-1.7-17h14.684L22.642,30z"></path></g></svg>